<svg width="25" height="24" viewBox="0 0 25 24" fill="none" xmlns="http://www.w3.org/2000/svg">
<path d="M12.472 1.98096C17.943 1.98096 22.3778 6.41579 22.3778 11.8868C22.3778 17.3578 17.943 21.7926 12.472 21.7926C10.7214 21.7954 9.00165 21.3322 7.48937 20.4504L2.57014 21.7926L3.90941 16.8714C3.02689 15.3586 2.56325 13.6381 2.56618 11.8868C2.56618 6.41579 7.00101 1.98096 12.472 1.98096ZM9.0961 7.23104L8.89798 7.23897C8.76972 7.24678 8.64437 7.28048 8.52948 7.33803C8.42202 7.39888 8.32393 7.47495 8.23825 7.56388C8.11938 7.67582 8.05202 7.77289 7.97971 7.867C7.61331 8.34337 7.41604 8.92822 7.41904 9.52919C7.42102 10.0146 7.54781 10.4871 7.74593 10.9289C8.15108 11.8224 8.81774 12.7684 9.69738 13.6451C9.90936 13.8561 10.1174 14.068 10.3413 14.2652C11.4343 15.2275 12.7367 15.9215 14.1451 16.2919L14.7077 16.3781C14.891 16.388 15.0743 16.3741 15.2585 16.3652C15.547 16.3503 15.8287 16.2722 16.0837 16.1364C16.2134 16.0696 16.34 15.9968 16.4631 15.9185C16.4631 15.9185 16.5057 15.8907 16.5869 15.8293C16.7206 15.7302 16.8028 15.6599 16.9138 15.544C16.996 15.4588 17.0673 15.3588 17.1218 15.2449C17.1991 15.0834 17.2763 14.7753 17.308 14.5188C17.3318 14.3226 17.3249 14.2156 17.3219 14.1493C17.3179 14.0433 17.2298 13.9333 17.1337 13.8868L16.5572 13.6282C16.5572 13.6282 15.6954 13.2528 15.1684 13.0131C15.1132 12.989 15.0541 12.9752 14.994 12.9725C14.9262 12.9655 14.8578 12.9731 14.7932 12.9948C14.7286 13.0165 14.6694 13.0518 14.6196 13.0983C14.6146 13.0963 14.5483 13.1527 13.8321 14.0205C13.791 14.0757 13.7343 14.1175 13.6694 14.1404C13.6045 14.1633 13.5342 14.1664 13.4675 14.1493C13.403 14.132 13.3398 14.1101 13.2783 14.0839C13.1555 14.0324 13.1129 14.0126 13.0287 13.9769C12.4602 13.7288 11.9338 13.3936 11.4685 12.9834C11.3437 12.8744 11.2278 12.7555 11.109 12.6406C10.7192 12.2674 10.3796 11.8452 10.0986 11.3846L10.0401 11.2905C9.99814 11.2272 9.9642 11.159 9.93908 11.0874C9.90144 10.9418 9.99951 10.8249 9.99951 10.8249C9.99951 10.8249 10.2402 10.5614 10.3522 10.4187C10.4611 10.2801 10.5532 10.1453 10.6127 10.0493C10.7296 9.86104 10.7662 9.66788 10.7048 9.5183C10.4274 8.84074 10.1402 8.16615 9.84498 7.49652C9.78653 7.36378 9.61318 7.26869 9.45568 7.24986C9.40219 7.24392 9.34869 7.23798 9.2952 7.23402C9.16217 7.22741 9.02887 7.22873 8.896 7.23798L9.0951 7.23005L9.0961 7.23104Z" fill="#292929"/>
</svg>
