<svg width="22" height="22" viewBox="0 0 22 22" fill="none" xmlns="http://www.w3.org/2000/svg">
<g clip-path="url(#clip0_2156_4802)">
<path d="M11.4812 0.0183333C12.682 0 13.8737 0.00916667 15.0654 0C15.1387 1.4025 15.6429 2.8325 16.6695 3.8225C17.6962 4.84 19.1445 5.3075 20.5562 5.46333V9.1575C19.2362 9.11167 17.907 8.83667 16.7062 8.26833C16.1837 8.03 15.6979 7.7275 15.2212 7.41583C15.212 10.0925 15.2304 12.7692 15.2029 15.4367C15.1295 16.72 14.7079 17.9942 13.9654 19.0483C12.7645 20.8083 10.6837 21.9542 8.54786 21.9908C7.23703 22.0642 5.9262 21.7067 4.80786 21.0467C2.9562 19.9558 1.65453 17.9575 1.46203 15.8125C1.4437 15.3542 1.43453 14.8958 1.45286 14.4467C1.61786 12.705 2.47953 11.0367 3.81786 9.9C5.33953 8.58 7.4662 7.9475 9.45536 8.32333C9.4737 9.68 9.4187 11.0367 9.4187 12.3933C8.5112 12.1 7.44786 12.1825 6.65036 12.7325C6.07286 13.1083 5.63286 13.6858 5.4037 14.3367C5.2112 14.8042 5.2662 15.3175 5.27536 15.8125C5.49536 17.3158 6.9437 18.5808 8.4837 18.4433C9.51036 18.4342 10.4912 17.8383 11.0229 16.9675C11.197 16.665 11.3895 16.3533 11.3987 15.9958C11.4904 14.355 11.4537 12.7233 11.4629 11.0825C11.472 7.38833 11.4537 3.70333 11.4812 0.0183333Z" fill="#292929"/>
</g>
<defs>
<clipPath id="clip0_2156_4802">
<rect width="22" height="22" fill="white"/>
</clipPath>
</defs>
</svg>
