<svg width="60" height="60" viewBox="0 0 60 60" fill="none" xmlns="http://www.w3.org/2000/svg">
<g clip-path="url(#clip0_2612_5425)">
<path d="M0.0268961 59.9083V58.1372C0.0268961 43.6329 0.0180024 29.128 0.000197537 14.6224C-0.019414 14.1069 0.070476 13.5932 0.263422 13.1182C0.456368 12.6432 0.747582 12.2187 1.11618 11.8752C4.66444 8.24348 8.13449 4.53008 11.6942 0.918291C12.2363 0.393401 12.938 0.0844961 13.6763 0.0457222C24.5767 -0.00873031 35.4765 -0.00873031 46.3756 0.0457222C47.0669 0.0759113 47.7263 0.357833 48.2394 0.842588C51.967 4.63965 55.6552 8.48121 59.3039 12.3673C59.7107 12.8282 59.9485 13.4244 59.9754 14.0506C60.004 25.0295 60.0307 36.0103 59.9582 46.9891C59.9182 53.0831 53.8174 59.7389 48.0944 59.7867C32.3256 59.9342 16.5549 59.9441 0.784247 60.0039C0.595387 59.9999 0.40843 59.9561 0.0268961 59.9083ZM2.48588 57.3384H37.9781C30.7175 50.6188 31.6045 42.2557 35.1948 37.2175C37.9304 33.3846 41.6809 31.4402 46.2593 31.3805C50.8739 31.3187 54.4851 33.5719 57.4763 37.2514V15.736H37.4458C37.4458 18.2262 37.4458 20.6308 37.4458 23.0353C37.4458 25.404 35.7995 26.4817 33.785 25.3482C32.8884 24.8422 32.1005 24.7047 31.2821 25.3701C30.3875 26.0973 29.5233 25.9996 28.6553 25.3362C27.8674 24.7386 27.1292 24.8561 26.2841 25.3223C24.1684 26.4917 22.5832 25.4398 22.5813 22.9317V15.7938H2.48588V57.3384ZM46.3985 57.426C47.8709 57.4204 49.3276 57.1098 50.6843 56.5123C52.041 55.9147 53.2707 55.0421 54.3022 53.9449C55.3337 52.8476 56.1466 51.5476 56.6937 50.1201C57.2409 48.6926 57.5114 47.1659 57.4897 45.6284C57.4439 38.9965 52.5412 33.9623 46.1429 33.9304C40.1147 33.9006 34.6606 39.5523 35.0326 46.3456C35.3626 52.346 40.3073 57.4499 46.3985 57.426ZM35.3875 2.60167C35.8892 5.72937 36.4195 8.63195 36.7934 11.5664C36.9403 12.7059 37.3047 13.0645 38.413 13.0526C43.9567 12.9948 49.5023 13.0267 55.046 13.0227C55.4046 13.0227 55.7614 12.9729 56.4081 12.9251C53.0715 9.44675 49.9487 6.18557 46.8087 2.94034C46.5983 2.74358 46.3279 2.63131 46.0456 2.62358C42.5336 2.5937 39.0311 2.60167 35.3875 2.60167ZM24.611 2.5678C20.9979 2.5678 17.4916 2.54788 13.9872 2.59569C13.6267 2.59569 13.2051 2.93834 12.9189 3.23319C10.0104 6.24268 7.11453 9.26081 4.23141 12.2876C4.087 12.4812 3.95932 12.6879 3.84987 12.9051H22.9723C23.5122 9.50054 24.0425 6.1537 24.611 2.5678ZM34.5309 12.8812C34.0158 9.56827 33.5294 6.35491 32.9914 3.15151C32.9533 2.92241 32.5488 2.60366 32.3066 2.59569C30.5897 2.54788 28.8575 2.57179 27.0719 2.57179C26.5168 6.07401 25.9884 9.41886 25.439 12.8812H34.5309ZM25.0841 15.7161V23.117C25.4256 22.9935 25.685 22.9676 25.8586 22.8281C27.0471 21.8798 28.186 21.9496 29.3936 22.8281C29.6702 23.0273 30.294 23.0771 30.5382 22.8879C31.8926 21.8739 33.1707 21.9615 34.4813 22.9277C34.6015 23.0154 34.8152 22.9616 34.9544 22.9715V15.7161H25.0841Z" fill="#1F1F1F"/>
<path d="M51.0704 51.1547C50.8406 51.155 50.6184 51.0687 50.4447 50.9116L45.2939 46.252V38.8252C45.2939 38.561 45.3944 38.3077 45.5733 38.1208C45.7522 37.934 45.9948 37.8291 46.2478 37.8291C46.5008 37.8291 46.7434 37.934 46.9222 38.1208C47.1011 38.3077 47.2016 38.561 47.2016 38.8252V45.3435L51.6884 49.4076C51.8347 49.5406 51.9387 49.7171 51.9864 49.9135C52.0342 50.1099 52.0234 50.3168 51.9556 50.5066C51.8879 50.6964 51.7663 50.8602 51.6071 50.976C51.4479 51.0918 51.2586 51.1541 51.0646 51.1547H51.0704Z" fill="#1F1F1F"/>
</g>
<defs>
<clipPath id="clip0_2612_5425">
<rect width="60" height="60" fill="white"/>
</clipPath>
</defs>
</svg>
