<svg width="25" height="24" viewBox="0 0 25 24" fill="none" xmlns="http://www.w3.org/2000/svg">
<path d="M13.7155 1.98218C14.4383 1.9794 15.1612 1.98667 15.8839 2.00397L16.076 2.0109C16.2979 2.01883 16.5169 2.02873 16.7813 2.04062C17.8353 2.09015 18.5545 2.25657 19.1855 2.50124C19.8393 2.75285 20.39 3.09361 20.9408 3.64437C21.4444 4.13927 21.8341 4.73792 22.0829 5.39869C22.3276 6.0297 22.494 6.74985 22.5436 7.80383C22.5554 8.06732 22.5653 8.28723 22.5733 8.50912L22.5792 8.7013C22.5968 9.42362 22.6044 10.1462 22.602 10.8687L22.603 11.6077V12.9053C22.6054 13.6282 22.5978 14.3511 22.5802 15.0737L22.5743 15.2659C22.5663 15.4878 22.5564 15.7067 22.5445 15.9712C22.495 17.0252 22.3266 17.7443 22.0829 18.3753C21.8349 19.0368 21.4451 19.6359 20.9408 20.1306C20.4455 20.6342 19.8465 21.0239 19.1855 21.2728C18.5545 21.5175 17.8353 21.6839 16.7813 21.7334C16.5169 21.7453 16.2979 21.7552 16.076 21.7631L15.8839 21.7691C15.1612 21.7867 14.4384 21.7943 13.7155 21.7918L12.9765 21.7928H11.6798C10.957 21.7953 10.2341 21.7877 9.51145 21.7701L9.31928 21.7641C9.08413 21.7556 8.84902 21.7457 8.61399 21.7344C7.56001 21.6849 6.84084 21.5165 6.20885 21.2728C5.54782 21.0245 4.94907 20.6347 4.45453 20.1306C3.95037 19.6356 3.56026 19.0366 3.3114 18.3753C3.06673 17.7443 2.90031 17.0252 2.85078 15.9712C2.83975 15.7361 2.82984 15.501 2.82106 15.2659L2.81611 15.0737C2.79784 14.3511 2.78959 13.6282 2.79134 12.9053V10.8687C2.78858 10.1462 2.79584 9.42363 2.81314 8.7013L2.82007 8.50912C2.82799 8.28723 2.8379 8.06732 2.84979 7.80383C2.89932 6.74886 3.06573 6.03069 3.31041 5.39869C3.55941 4.7376 3.95029 4.13911 4.45552 3.64536C4.94972 3.14091 5.5481 2.75044 6.20885 2.50124C6.84084 2.25657 7.55902 2.09015 8.61399 2.04062L9.31928 2.0109L9.51145 2.00595C10.2338 1.9877 10.9563 1.97944 11.6788 1.98119L13.7155 1.98218ZM12.6972 6.93509C12.0409 6.92581 11.3894 7.04705 10.7804 7.29176C10.1714 7.53648 9.6171 7.8998 9.14974 8.36059C8.68238 8.82139 8.31126 9.37047 8.05796 9.97594C7.80465 10.5814 7.67421 11.2312 7.67421 11.8875C7.67421 12.5438 7.80465 13.1936 8.05796 13.7991C8.31126 14.4045 8.68238 14.9536 9.14974 15.4144C9.6171 15.8752 10.1714 16.2385 10.7804 16.4832C11.3894 16.728 12.0409 16.8492 12.6972 16.8399C14.0108 16.8399 15.2706 16.3181 16.1994 15.3892C17.1283 14.4604 17.6501 13.2006 17.6501 11.887C17.6501 10.5734 17.1283 9.31362 16.1994 8.38477C15.2706 7.45592 14.0108 6.93509 12.6972 6.93509ZM12.6972 8.91625C13.0919 8.90898 13.4842 8.98044 13.851 9.12646C14.2178 9.27248 14.5519 9.49014 14.8336 9.76671C15.1154 10.0433 15.3392 10.3732 15.492 10.7373C15.6449 11.1013 15.7236 11.4922 15.7237 11.887C15.7237 12.2818 15.6451 12.6727 15.4924 13.0368C15.3397 13.4009 15.116 13.7309 14.8343 14.0076C14.5527 14.2843 14.2187 14.502 13.8519 14.6482C13.4851 14.7943 13.0929 14.8659 12.6982 14.8588C11.91 14.8588 11.1541 14.5457 10.5968 13.9884C10.0395 13.431 9.72641 12.6752 9.72641 11.887C9.72641 11.0989 10.0395 10.343 10.5968 9.78567C11.1541 9.22836 11.91 8.91526 12.6982 8.91526L12.6972 8.91625ZM17.8977 5.44921C17.5782 5.462 17.2759 5.59795 17.0543 5.82858C16.8328 6.05921 16.709 6.36663 16.709 6.68645C16.709 7.00628 16.8328 7.3137 17.0543 7.54432C17.2759 7.77495 17.5782 7.9109 17.8977 7.92369C18.2261 7.92369 18.5411 7.79323 18.7733 7.56102C19.0055 7.32881 19.136 7.01386 19.136 6.68546C19.136 6.35706 19.0055 6.04211 18.7733 5.8099C18.5411 5.57769 18.2261 5.44723 17.8977 5.44723V5.44921Z" fill="#292929"/>
</svg>
